<svg xmlns="http://www.w3.org/2000/svg" width="65" height="15" viewBox="0 0 65 15" fill="none">
<g clip-path="url(#clip0_17790_11196)">
<path d="M6.33592 5.46619C5.78964 4.9635 5.16531 4.79541 4.43205 4.79541C3.52646 4.79541 3.02732 5.06975 3.02732 5.54231C3.02732 6.01487 3.47931 6.30348 4.4662 6.37167C5.91808 6.46365 7.76017 6.78239 7.76017 8.77729C7.76017 10.1014 6.65134 11.2432 4.45156 11.2432C3.2338 11.2432 2.01279 11.045 0.892578 9.9032L1.82907 8.57907C2.37535 9.17215 3.6175 9.61459 4.48246 9.62886C5.19945 9.64472 5.87093 9.27999 5.87093 8.73131C5.87093 8.21434 5.43358 8.00026 4.34101 7.93842C2.8875 7.82583 1.15434 7.30728 1.15434 5.60257C1.15434 3.86773 2.99643 3.25879 4.40604 3.25879C5.60754 3.25879 6.51965 3.48714 7.40248 4.24831L6.33592 5.46619Z" fill="#D9DBF2"/>
<path d="M8.97461 14.1118V3.47119H10.7533L10.8785 4.50671C11.4719 3.66942 12.5043 3.30469 13.3758 3.30469C15.7479 3.30469 17.3233 5.02367 17.3233 7.23107C17.3233 9.43848 15.904 11.159 13.4376 11.159C12.6246 11.159 11.4248 10.9148 10.8785 10.0934V14.1118H8.97461ZM15.4195 7.23107C15.4195 6.05443 14.6082 5.10296 13.2343 5.10296C11.8605 5.10296 11.0492 6.05443 11.0492 7.23107C11.0492 7.79632 11.2794 8.33843 11.6892 8.73812C12.099 9.13781 12.6548 9.36236 13.2343 9.36236C13.8139 9.36236 14.3697 9.13781 14.7795 8.73812C15.1893 8.33843 15.4195 7.79632 15.4195 7.23107Z" fill="#D9DBF2"/>
<path d="M20.4909 3.47154L20.6324 4.33896C21.2258 3.41128 22.0209 3.2749 22.8013 3.2749C23.5817 3.2749 24.3621 3.57779 24.7881 3.99326L23.9296 5.60599C23.745 5.44077 23.5287 5.31271 23.2933 5.22917C23.0578 5.14563 22.8077 5.10824 22.5574 5.11916C21.5575 5.11916 20.6373 5.63612 20.6373 7.02209V10.9707H18.7285V3.47154H20.4909Z" fill="#D9DBF2"/>
<path d="M34.7894 10.9702V7.04862C34.7894 5.90686 34.1488 5.03944 32.9311 5.03944C31.7605 5.03944 30.9654 5.99091 30.9654 7.14059V10.9702H29.0762V3.45683H30.7784L30.902 4.47649C31.6824 3.72959 32.4628 3.35059 33.4318 3.35059C35.2414 3.35059 36.6933 4.67471 36.6933 7.03435V10.9702H34.7894Z" fill="#D9DBF2"/>
<path d="M44.4039 14.1118V10.0934C43.8576 10.9148 42.6561 11.159 41.8448 11.159C39.3784 11.159 37.959 9.4242 37.959 7.23107C37.959 5.03794 39.5344 3.30469 41.9066 3.30469C42.7813 3.30469 43.8121 3.66942 44.4039 4.50671L44.529 3.47119H46.3077V14.1118H44.4039ZM44.2331 7.23107C44.2331 6.05918 43.4202 5.09979 42.048 5.09979C40.6758 5.09979 39.8629 6.05443 39.8629 7.23107C39.8629 7.79632 40.0931 8.33843 40.5029 8.73812C40.9127 9.13781 41.4685 9.36236 42.048 9.36236C42.6275 9.36236 43.1833 9.13781 43.5931 8.73812C44.0029 8.33843 44.2331 7.79632 44.2331 7.23107Z" fill="#D9DBF2"/>
<path d="M49.774 3.47168V7.39965C49.774 8.54141 50.4129 9.40883 51.6307 9.40883C52.8013 9.40883 53.598 8.45736 53.598 7.30768V3.47168H55.4856V10.9914H53.785L53.6598 9.97178C52.8647 10.733 52.1298 11.0993 51.0584 11.0993C49.2163 11.0993 47.875 9.74343 47.875 7.41551V3.47168H49.774Z" fill="#D9DBF2"/>
<path d="M58.7961 7.88632C58.9196 8.81559 59.7472 9.48478 61.0901 9.48478C61.7925 9.48478 62.716 9.2263 63.1501 8.78387L64.3678 9.95735C63.5549 10.7788 62.2282 11.1752 61.0592 11.1752C58.4059 11.1752 56.832 9.57676 56.832 7.17113C56.832 4.88762 58.4237 3.24316 60.921 3.24316C63.4964 3.24316 65.1044 4.79564 64.8068 7.88632H58.7961ZM62.9777 6.3497C62.8526 5.37445 62.0721 4.88762 60.9812 4.88762C59.9504 4.88762 59.1082 5.37445 58.827 6.3497H62.9777Z" fill="#D9DBF2"/>
<path d="M26.2175 2.52409C26.9535 2.52409 27.5015 2.03512 27.5015 1.36278C27.5015 0.659874 26.9535 0.170898 26.2175 0.170898C25.4816 0.170898 24.9492 0.659874 24.9492 1.36278C24.9492 2.03512 25.4816 2.52409 26.2175 2.52409Z" fill="#D9DBF2"/>
<path d="M26.2175 8.35759C26.9535 8.35759 27.5015 7.86861 27.5015 7.19627C27.5015 6.49337 26.9535 6.00439 26.2175 6.00439C25.4816 6.00439 24.9492 6.49337 24.9492 7.19627C24.9492 7.86861 25.4816 8.35759 26.2175 8.35759Z" fill="#D9DBF2"/>
<path d="M26.2195 11.2741C26.9554 11.2741 27.5035 10.7851 27.5035 10.1128C27.5035 9.40987 26.9554 8.9209 26.2195 8.9209C25.4836 8.9209 24.9512 9.40987 24.9512 10.1128C24.9512 10.7851 25.4836 11.2741 26.2195 11.2741Z" fill="#D9DBF2"/>
<path d="M26.2195 5.4406C26.9554 5.4406 27.5035 4.95162 27.5035 4.27928C27.5035 3.57638 26.9554 3.0874 26.2195 3.0874C25.4836 3.0874 24.9512 3.57638 24.9512 4.27928C24.9512 4.95162 25.4836 5.4406 26.2195 5.4406Z" fill="#D9DBF2"/>
</g>
<defs>
<clipPath id="clip0_17790_11196">
<rect width="64.2953" height="14" fill="white" transform="translate(0.542969 0.170898)"/>
</clipPath>
</defs>
</svg>