<svg width="86" height="45" viewBox="0 0 86 45" fill="none" xmlns="http://www.w3.org/2000/svg">
<rect x="0.749939" y="0.676392" width="85.0938" height="43.6764" rx="1.50608" fill="#000339"/>
<g clip-path="url(#clip0_4072_587)">
<g clip-path="url(#clip1_4072_587)">
<path d="M15.5388 20.6808C14.9667 20.14 14.3129 19.9592 13.545 19.9592C12.5967 19.9592 12.074 20.2543 12.074 20.7627C12.074 21.2711 12.5473 21.5816 13.5808 21.6549C15.1012 21.7539 17.0302 22.0967 17.0302 24.2428C17.0302 25.6673 15.8691 26.8956 13.5655 26.8956C12.2902 26.8956 11.0116 26.6823 9.8385 25.454L10.8192 24.0296C11.3913 24.6676 12.692 25.1436 13.5978 25.1589C14.3487 25.176 15.0518 24.7836 15.0518 24.1933C15.0518 23.6372 14.5938 23.4069 13.4497 23.3404C11.9276 23.2193 10.1126 22.6614 10.1126 20.8275C10.1126 18.9612 12.0417 18.3062 13.5178 18.3062C14.776 18.3062 15.7312 18.5518 16.6557 19.3707L15.5388 20.6808Z" fill="white"/>
<path d="M18.3015 29.9816V18.5347H20.1641L20.2952 19.6487C20.9167 18.748 21.9978 18.3556 22.9104 18.3556C25.3945 18.3556 27.0443 20.2048 27.0443 22.5795C27.0443 24.9542 25.5579 26.8051 22.9751 26.8051C22.1238 26.8051 20.8673 26.5424 20.2952 25.6587V29.9816H18.3015ZM25.0506 22.5795C25.0506 21.3137 24.201 20.2901 22.7623 20.2901C21.3236 20.2901 20.474 21.3137 20.474 22.5795C20.474 23.1876 20.7151 23.7708 21.1442 24.2007C21.5734 24.6307 22.1554 24.8723 22.7623 24.8723C23.3692 24.8723 23.9512 24.6307 24.3804 24.2007C24.8095 23.7708 25.0506 23.1876 25.0506 22.5795Z" fill="white"/>
<path d="M30.3626 18.5348L30.5107 19.4679C31.1321 18.47 31.9647 18.3232 32.782 18.3232C33.5992 18.3232 34.4164 18.6491 34.8625 19.096L33.9636 20.831C33.7702 20.6532 33.5438 20.5155 33.2972 20.4256C33.0506 20.3357 32.7887 20.2955 32.5266 20.3072C31.4795 20.3072 30.5158 20.8634 30.5158 22.3544V26.6022H28.517V18.5348H30.3626Z" fill="white"/>
<path d="M45.3354 26.6019V22.3832C45.3354 21.1549 44.6646 20.2217 43.3894 20.2217C42.1635 20.2217 41.331 21.2453 41.331 22.4821V26.6019H39.3525V18.5192H41.1352L41.2646 19.6161C42.0818 18.8126 42.899 18.4049 43.9138 18.4049C45.8088 18.4049 47.3292 19.8294 47.3292 22.3678V26.6019H45.3354Z" fill="white"/>
<path d="M55.4027 29.9816V25.6587C54.8306 26.5424 53.5724 26.8051 52.7228 26.8051C50.14 26.8051 48.6536 24.9388 48.6536 22.5795C48.6536 20.2202 50.3034 18.3556 52.7875 18.3556C53.7035 18.3556 54.7829 18.748 55.4027 19.6487L55.5338 18.5347H57.3964V29.9816H55.4027ZM55.2239 22.5795C55.2239 21.3188 54.3726 20.2867 52.9356 20.2867C51.4986 20.2867 50.6474 21.3137 50.6474 22.5795C50.6474 23.1876 50.8884 23.7708 51.3176 24.2007C51.7467 24.6307 52.3287 24.8723 52.9356 24.8723C53.5425 24.8723 54.1246 24.6307 54.5537 24.2007C54.9828 23.7708 55.2239 23.1876 55.2239 22.5795Z" fill="white"/>
<path d="M61.0273 18.5348V22.7604C61.0273 23.9887 61.6964 24.9218 62.9716 24.9218C64.1975 24.9218 65.0317 23.8983 65.0317 22.6615V18.5348H67.0084V26.6243H65.2275L65.0964 25.5274C64.2639 26.3463 63.4943 26.7404 62.3723 26.7404C60.4433 26.7404 59.0386 25.2818 59.0386 22.7775V18.5348H61.0273Z" fill="white"/>
<path d="M70.474 23.2841C70.6034 24.2837 71.47 25.0036 72.8763 25.0036C73.6118 25.0036 74.5789 24.7256 75.0335 24.2496L76.3087 25.512C75.4574 26.3957 74.0681 26.8222 72.844 26.8222C70.0653 26.8222 68.4172 25.1026 68.4172 22.5147C68.4172 20.0581 70.0841 18.2891 72.6993 18.2891C75.3962 18.2891 77.08 19.9592 76.7684 23.2841H70.474ZM74.853 21.631C74.7219 20.5818 73.9047 20.0581 72.7622 20.0581C71.6828 20.0581 70.8009 20.5818 70.5063 21.631H74.853Z" fill="white"/>
<path d="M36.3584 17.5156C37.1291 17.5156 37.703 16.9896 37.703 16.2663C37.703 15.5102 37.1291 14.9841 36.3584 14.9841C35.5877 14.9841 35.0302 15.5102 35.0302 16.2663C35.0302 16.9896 35.5877 17.5156 36.3584 17.5156Z" fill="white"/>
<path d="M36.3585 23.791C37.1292 23.791 37.7031 23.265 37.7031 22.5417C37.7031 21.7855 37.1292 21.2595 36.3585 21.2595C35.5878 21.2595 35.0303 21.7855 35.0303 22.5417C35.0303 23.265 35.5878 23.791 36.3585 23.791Z" fill="white"/>
<path d="M36.3609 26.9287C37.1316 26.9287 37.7055 26.4027 37.7055 25.6794C37.7055 24.9232 37.1316 24.3972 36.3609 24.3972C35.5902 24.3972 35.0327 24.9232 35.0327 25.6794C35.0327 26.4027 35.5902 26.9287 36.3609 26.9287Z" fill="white"/>
<path d="M36.3609 20.6533C37.1316 20.6533 37.7055 20.1273 37.7055 19.404C37.7055 18.6479 37.1316 18.1218 36.3609 18.1218C35.5902 18.1218 35.0327 18.6479 35.0327 19.404C35.0327 20.1273 35.5902 20.6533 36.3609 20.6533Z" fill="white"/>
</g>
</g>
<defs>
<clipPath id="clip0_4072_587">
<rect width="67.0207" height="15.0608" fill="white" transform="translate(9.78644 14.9841)"/>
</clipPath>
<clipPath id="clip1_4072_587">
<rect width="67.33" height="15.0608" fill="white" transform="translate(9.47229 14.9841)"/>
</clipPath>
</defs>
</svg>
