<svg width="86" height="44" viewBox="0 0 86 44" fill="none" xmlns="http://www.w3.org/2000/svg">
<rect x="0.749939" width="85.0938" height="43.6764" rx="1.50608" fill="white"/>
<g clip-path="url(#clip0_4072_569)">
<g clip-path="url(#clip1_4072_569)">
<path d="M15.5388 20.0046C14.9667 19.4638 14.3129 19.2829 13.545 19.2829C12.5967 19.2829 12.074 19.5781 12.074 20.0864C12.074 20.5948 12.5473 20.9053 13.5808 20.9786C15.1012 21.0776 17.0302 21.4205 17.0302 23.5666C17.0302 24.991 15.8691 26.2193 13.5655 26.2193C12.2902 26.2193 11.0116 26.006 9.8385 24.7778L10.8192 23.3533C11.3913 23.9913 12.692 24.4673 13.5978 24.4826C14.3487 24.4997 15.0518 24.1073 15.0518 23.5171C15.0518 22.9609 14.5938 22.7306 13.4497 22.6641C11.9276 22.543 10.1126 21.9851 10.1126 20.1513C10.1126 18.285 12.0417 17.6299 13.5178 17.6299C14.776 17.6299 15.7312 17.8755 16.6557 18.6944L15.5388 20.0046Z" fill="#000339"/>
<path d="M18.3015 29.3053V17.8584H20.1641L20.2952 18.9724C20.9167 18.0717 21.9978 17.6793 22.9104 17.6793C25.3945 17.6793 27.0443 19.5286 27.0443 21.9032C27.0443 24.2779 25.5579 26.1288 22.9751 26.1288C22.1238 26.1288 20.8673 25.8661 20.2952 24.9824V29.3053H18.3015ZM25.0506 21.9032C25.0506 20.6374 24.201 19.6139 22.7623 19.6139C21.3236 19.6139 20.474 20.6374 20.474 21.9032C20.474 22.5113 20.7151 23.0945 21.1442 23.5245C21.5734 23.9544 22.1554 24.196 22.7623 24.196C23.3692 24.196 23.9512 23.9544 24.3804 23.5245C24.8095 23.0945 25.0506 22.5113 25.0506 21.9032Z" fill="#000339"/>
<path d="M30.3626 17.8585L30.5107 18.7917C31.1321 17.7937 31.9647 17.647 32.782 17.647C33.5992 17.647 34.4164 17.9728 34.8625 18.4198L33.9636 20.1547C33.7702 19.977 33.5438 19.8392 33.2972 19.7493C33.0506 19.6594 32.7887 19.6192 32.5266 19.631C31.4795 19.631 30.5158 20.1871 30.5158 21.6781V25.9259H28.517V17.8585H30.3626Z" fill="#000339"/>
<path d="M45.3354 25.9257V21.7069C45.3354 20.4786 44.6646 19.5455 43.3894 19.5455C42.1635 19.5455 41.331 20.569 41.331 21.8058V25.9257H39.3525V17.8429H41.1352L41.2646 18.9399C42.0818 18.1364 42.899 17.7286 43.9138 17.7286C45.8088 17.7286 47.3292 19.1531 47.3292 21.6915V25.9257H45.3354Z" fill="#000339"/>
<path d="M55.4027 29.3053V24.9824C54.8306 25.8661 53.5724 26.1288 52.7228 26.1288C50.14 26.1288 48.6536 24.2625 48.6536 21.9032C48.6536 19.5439 50.3034 17.6793 52.7875 17.6793C53.7035 17.6793 54.7829 18.0717 55.4027 18.9724L55.5338 17.8584H57.3964V29.3053H55.4027ZM55.2239 21.9032C55.2239 20.6425 54.3726 19.6104 52.9356 19.6104C51.4986 19.6104 50.6474 20.6374 50.6474 21.9032C50.6474 22.5113 50.8884 23.0945 51.3176 23.5245C51.7467 23.9544 52.3287 24.196 52.9356 24.196C53.5425 24.196 54.1246 23.9544 54.5537 23.5245C54.9828 23.0945 55.2239 22.5113 55.2239 21.9032Z" fill="#000339"/>
<path d="M61.0273 17.8585V22.0841C61.0273 23.3124 61.6964 24.2456 62.9716 24.2456C64.1975 24.2456 65.0317 23.222 65.0317 21.9852V17.8585H67.0084V25.9481H65.2275L65.0964 24.8512C64.2639 25.67 63.4943 26.0641 62.3723 26.0641C60.4433 26.0641 59.0386 24.6055 59.0386 22.1012V17.8585H61.0273Z" fill="#000339"/>
<path d="M70.474 22.6078C70.6034 23.6075 71.47 24.3274 72.8763 24.3274C73.6118 24.3274 74.5789 24.0493 75.0335 23.5733L76.3087 24.8357C75.4574 25.7194 74.0681 26.1459 72.844 26.1459C70.0653 26.1459 68.4172 24.4263 68.4172 21.8384C68.4172 19.3819 70.0841 17.6128 72.6993 17.6128C75.3962 17.6128 77.08 19.2829 76.7684 22.6078H70.474ZM74.853 20.9547C74.7219 19.9056 73.9047 19.3819 72.7622 19.3819C71.6828 19.3819 70.8009 19.9056 70.5063 20.9547H74.853Z" fill="#000339"/>
<path d="M36.3584 16.8392C37.1291 16.8392 37.703 16.3132 37.703 15.5899C37.703 14.8338 37.1291 14.3077 36.3584 14.3077C35.5877 14.3077 35.0302 14.8338 35.0302 15.5899C35.0302 16.3132 35.5877 16.8392 36.3584 16.8392Z" fill="#000339"/>
<path d="M36.3585 23.1146C37.1292 23.1146 37.7031 22.5886 37.7031 21.8653C37.7031 21.1092 37.1292 20.5831 36.3585 20.5831C35.5878 20.5831 35.0303 21.1092 35.0303 21.8653C35.0303 22.5886 35.5878 23.1146 36.3585 23.1146Z" fill="#000339"/>
<path d="M36.361 26.2523C37.1316 26.2523 37.7056 25.7263 37.7056 25.003C37.7056 24.2469 37.1316 23.7208 36.361 23.7208C35.5903 23.7208 35.0328 24.2469 35.0328 25.003C35.0328 25.7263 35.5903 26.2523 36.361 26.2523Z" fill="#000339"/>
<path d="M36.361 19.9769C37.1316 19.9769 37.7056 19.4509 37.7056 18.7276C37.7056 17.9715 37.1316 17.4454 36.361 17.4454C35.5903 17.4454 35.0328 17.9715 35.0328 18.7276C35.0328 19.4509 35.5903 19.9769 36.361 19.9769Z" fill="#000339"/>
</g>
</g>
<defs>
<clipPath id="clip0_4072_569">
<rect width="67.0207" height="15.0608" fill="white" transform="translate(9.78644 14.3077)"/>
</clipPath>
<clipPath id="clip1_4072_569">
<rect width="67.33" height="15.0608" fill="white" transform="translate(9.47229 14.3077)"/>
</clipPath>
</defs>
</svg>
